<svg width="1512" height="163" viewBox="0 0 1512 163" fill="none" xmlns="http://www.w3.org/2000/svg">
<path fill-rule="evenodd" clip-rule="evenodd" d="M1512 162.485V1.00005C1482.31 3.65702 1450.02 9.36007 1470.5 38.5091C1501.47 82.594 1333 180.981 1335.5 94.9981C1336.84 49.0449 1260.52 72.7451 1183.46 96.6728C1145.18 108.562 1106.71 120.508 1077.5 123.992C1046.52 127.688 1013.3 110.395 984.5 64.0042C955.7 17.6134 896 31.0108 891 74.0023C889.191 89.5533 896.071 101.782 901.406 111.264C910.819 127.997 915.424 136.181 859 138.989C748.5 144.488 696.5 118.993 686.5 64.0042C680.465 30.8166 658.5 -3.99988 606 1.00012V1.00006C572.641 3.59545 542.449 7.34903 564.5 38.7375C595.47 82.8223 427 181.209 429.5 95.2264C430.836 49.2733 354.516 72.9735 277.464 96.9012C239.178 108.79 200.711 120.736 171.5 124.221C140.519 127.916 107.3 110.623 78.5 64.2326C49.7 17.8418 -10 31.2391 -15 74.2306C-16.8086 89.7816 -9.9292 102.01 -4.59433 111.493C4.81924 128.225 9.42365 136.41 -47 139.218C-157.5 144.717 -209.5 119.222 -219.5 64.2326C-225.414 31.71 -259.382 15.1894 -300 7.4672V162.713H606V162.485H1512Z" fill="#252525"/>
</svg>
