<svg width="1512" height="163" viewBox="0 0 1512 163" fill="none" xmlns="http://www.w3.org/2000/svg">
<path fill-rule="evenodd" clip-rule="evenodd" d="M1512 161.966V0.481637C1482.31 3.13861 1450.02 8.84166 1470.5 37.9907C1501.47 82.0756 1333 180.463 1335.5 94.4797C1336.84 48.5265 1260.52 72.2267 1183.46 96.1544C1145.18 108.044 1106.71 119.989 1077.5 123.474C1046.52 127.17 1013.3 109.877 984.5 63.4858C955.7 17.095 896 30.4924 891 73.4839C889.565 85.8232 890.148 95.1157 890.61 102.472C891.757 120.746 892.154 127.071 859 138.471C754.376 174.446 696.5 118.475 686.5 63.4858C680.465 30.2981 658.5 -4.51829 606 0.481708V0.481934C572.641 3.07732 542.449 6.83091 564.5 38.2194C595.47 82.3042 427 180.691 429.5 94.7083C430.836 48.7551 354.516 72.4553 277.464 96.3831C239.178 108.272 200.711 120.218 171.5 123.702C140.519 127.398 107.3 110.105 78.5 63.7145C49.7 17.3236 -10 30.721 -15 73.7125C-16.1015 83.1834 -15.7034 91.4365 -15.358 98.5957C-14.1357 123.934 -13.5744 135.57 -82.5 139C-193 144.499 -209.5 118.704 -219.5 63.7145C-225.414 31.1918 -259.382 14.6713 -300 6.94907V162.195H606V161.966H1512Z" fill="#252525"/>
</svg>
