<svg width="351" height="310" viewBox="0 0 351 310" fill="none" xmlns="http://www.w3.org/2000/svg">
<g clip-path="url(#clip0_138_245)">
<path d="M216.775 260.136C275.524 236.676 315.334 198.087 305.694 173.945C296.053 149.803 240.613 149.25 181.864 172.709C123.115 196.169 83.3049 234.758 92.9454 258.9C102.586 283.042 158.026 283.595 216.775 260.136Z" fill="#F4BB40" stroke="#252525" stroke-width="5" stroke-miterlimit="10"/>
<path d="M205.328 235.33C264.077 211.87 303.716 172.851 293.863 148.178C284.011 123.506 228.399 122.523 169.65 145.983C110.901 169.442 71.2627 208.461 81.115 233.134C90.9673 257.806 146.58 258.789 205.328 235.33Z" fill="#252525"/>
<path d="M83.1125 210.804C83.1125 210.804 83.1006 210.809 83.0911 210.82C76.6837 216.798 73.6765 230.618 82.4265 231.093C86.0992 231.294 97.9625 223.728 101.986 234.7C102.181 235.24 102.516 235.718 102.984 236.046C104.93 237.404 110.772 239.211 123.503 227.303C124.215 226.641 125.037 226.113 125.934 225.741C128.78 224.578 134.867 222.813 137.906 227.339C141.959 233.37 154.978 223.598 157.467 220.077C162.048 213.593 167.647 216.548 170.545 218.844C172.659 220.52 175.401 221.217 178.052 220.721C182.481 219.886 192.999 219.154 198.237 207.628C198.237 207.628 200.301 200.13 217.024 203.58C217.503 203.677 218.65 203.775 219.139 203.758C221.55 203.695 226.98 204.074 233.832 188.114C233.957 187.823 234.06 187.528 234.148 187.232C234.683 185.385 237.888 177.005 251.445 180.366C251.445 180.366 260.892 183.707 268.818 166.419C270.62 162.486 275.126 160.57 279.18 162.089C279.916 162.365 280.704 162.716 281.552 163.153C289.156 167.099 294.08 152.685 289.08 147.074C287.609 145.423 288.982 142.623 290.734 141.271C291.148 140.948 291.622 140.635 292.164 140.337C295.755 138.353 292.044 125.629 276.743 125.725C262.13 125.82 99.7555 202.524 85.1644 209.429C84.4177 209.782 83.7278 210.243 83.1267 210.805L83.1125 210.804Z" fill="#F4BB40" stroke="#252525" stroke-width="5" stroke-miterlimit="10"/>
<path d="M191.145 194.366C249.894 170.906 291.402 136.57 283.856 117.673C276.31 98.776 222.568 102.475 163.819 125.935C105.07 149.394 63.562 183.731 71.108 202.628C78.6539 221.525 132.396 217.826 191.145 194.366Z" fill="#252525"/>
<path d="M245.241 137.604C261.345 131.173 271.824 119.509 268.647 111.552C265.469 103.595 249.839 102.358 233.735 108.789C217.631 115.219 207.152 126.883 210.329 134.84C213.506 142.797 229.137 144.034 245.241 137.604Z" fill="#F4BB40" stroke="#252525" stroke-width="4" stroke-miterlimit="10"/>
<path d="M242.319 130.284C258.423 123.854 268.902 112.19 265.725 104.233C262.547 96.2758 246.916 95.0385 230.812 101.469C214.708 107.9 204.229 119.564 207.407 127.521C210.584 135.478 226.215 136.715 242.319 130.284Z" fill="#F4BB40" stroke="#252525" stroke-width="4" stroke-miterlimit="10"/>
<path d="M114.33 194.597C130.434 188.166 140.913 176.502 137.736 168.545C134.558 160.588 118.928 159.351 102.824 165.781C86.7195 172.212 76.2404 183.876 79.4178 191.833C82.5953 199.79 98.226 201.027 114.33 194.597Z" fill="#F4BB40" stroke="#252525" stroke-width="4" stroke-miterlimit="10"/>
<path d="M111.407 187.277C127.511 180.847 137.99 169.183 134.813 161.226C131.636 153.269 116.005 152.031 99.9007 158.462C83.7966 164.893 73.3175 176.556 76.495 184.514C79.6724 192.471 95.3032 193.708 111.407 187.277Z" fill="#F4BB40" stroke="#252525" stroke-width="4" stroke-miterlimit="10"/>
<path d="M60.32 160.48C59.0442 162.329 56.363 166.633 55.5596 171.163C54.4895 174.512 58.0517 177.487 61.3216 176.737C78.8315 172.732 137.579 160.725 174.494 170.359C179.716 171.72 185.133 169.571 188.101 165.069C200.471 146.329 234.033 100.945 273.14 93.8152C274.348 93.5938 275.447 92.9351 276.122 91.8964C278.182 88.7325 279.747 81.5987 259.02 75.3334C232.619 67.3443 75.3502 151.78 61.9098 159.035C61.2698 159.38 60.7224 159.874 60.3062 160.479L60.32 160.48Z" fill="#F4BB40" stroke="#252525" stroke-width="4" stroke-miterlimit="10"/>
<path d="M253.74 62.6247C252.473 60.7618 250.385 59.3575 249.312 58.255C225.171 33.2834 185.156 25.1694 131.58 46.5634C78.0045 67.9575 52.9994 109.856 53.7495 140.996C53.7989 143.084 53.0939 146.798 54.1841 148.546C54.1328 153.174 54.7345 156.456 55.8034 159.133C57.7661 164.048 66.4593 165.224 78.4944 164.861C99.526 164.228 133.969 153.873 170.131 139.432C203.89 125.952 232.308 110.127 248.693 96.6699C259.902 87.4635 265.483 79.3645 263.293 73.881C262 70.6418 259.109 67.8482 253.74 62.6247Z" fill="#252525"/>
<path d="M98.8447 212.411C98.2689 212.676 97.9762 213.321 98.1569 213.929C99.1489 217.24 102.78 226.419 110.148 214.558C118.332 201.396 112.484 219.323 111.608 221.953C111.531 222.176 111.519 222.421 111.577 222.652C111.891 223.92 113.398 227.177 119.535 213.906C120.318 212.213 124.157 223.705 124.78 221.025C127.872 207.624 159.229 201.364 166.533 201.785C167.463 201.839 167.12 206.803 166.685 207.629L166.474 208.029C165.572 209.735 167.6 211.486 169.155 210.35C172.824 207.663 182.279 187.793 185.832 201.844C187.238 207.4 189.564 181.101 215.53 175.971C215.676 175.94 268.373 150.709 268.519 150.678C269.917 150.388 277.671 147.058 282.979 150.355C283.856 150.898 282.879 148.693 282.451 147.758C281.451 145.582 277.982 142.91 266.941 143.021C249.283 143.192 111.76 206.464 98.8435 212.426L98.8447 212.411Z" fill="#252525"/>
<path d="M161.3 158.332L175.81 159.96C176.84 160.077 177.842 159.622 178.441 158.779L187.104 146.524C187.323 146.21 186.927 145.84 186.632 146.081L176.673 154.713C176.07 155.235 175.328 155.566 174.545 155.673L161.269 157.41C160.743 157.504 160.77 158.262 161.298 158.326L161.3 158.332Z" fill="#252525"/>
<path d="M82.2878 109.079C84.4866 106.293 85.3776 103.334 84.278 102.47C83.1783 101.605 80.5044 103.162 78.3055 105.948C76.1067 108.733 75.2157 111.692 76.3153 112.556C77.415 113.421 80.089 111.864 82.2878 109.079Z" fill="#F4BB40"/>
<path d="M116.229 84.3448C118.994 82.1183 120.523 79.4314 119.645 78.3433C118.767 77.2553 115.813 78.1782 113.048 80.4047C110.283 82.6311 108.754 85.3181 109.632 86.4061C110.51 87.4941 113.464 86.5713 116.229 84.3448Z" fill="#F4BB40"/>
<path d="M99.1264 102.187C100.603 101.371 101.434 100.05 100.984 99.2362C100.534 98.4229 98.9718 98.4253 97.4954 99.2417C96.0191 100.058 95.1874 101.379 95.6377 102.193C96.0881 103.006 97.65 103.004 99.1264 102.187Z" fill="#F4BB40"/>
<path d="M94.1962 89.8763C95.8795 88.9455 96.7379 87.2768 96.1135 86.1492C95.4891 85.0215 93.6184 84.862 91.9351 85.7928C90.2518 86.7237 89.3934 88.3924 90.0178 89.52C90.6421 90.6476 92.5129 90.8072 94.1962 89.8763Z" fill="#F4BB40"/>
<path d="M130.925 60.8703C130.583 59.5148 127.515 59.1222 124.073 59.9934C120.631 60.8647 118.119 62.6699 118.461 64.0255C118.803 65.3811 121.871 65.7737 125.313 64.9024C128.755 64.0311 131.268 62.2259 130.925 60.8703Z" fill="#F4BB40"/>
<path d="M173.656 63.2731C173.625 61.8749 170.724 60.8088 167.175 60.8919C163.626 60.9749 160.774 62.1756 160.805 63.5737C160.836 64.9718 163.737 66.0379 167.286 65.9549C170.835 65.8719 173.687 64.6712 173.656 63.2731Z" fill="#F4BB40"/>
<path d="M146.119 68.4777C146.259 67.5581 145.021 66.6092 143.354 66.3584C141.687 66.1075 140.221 66.6497 140.081 67.5693C139.941 68.4889 141.179 69.4377 142.846 69.6886C144.514 69.9394 145.979 69.3973 146.119 68.4777Z" fill="#F4BB40"/>
<path d="M150.256 55.1253C150.45 53.8503 149.067 52.585 147.166 52.2989C145.265 52.0129 143.566 52.8146 143.371 54.0895C143.177 55.3644 144.561 56.6298 146.462 56.9158C148.363 57.2018 150.062 56.4002 150.256 55.1253Z" fill="#F4BB40"/>
<path d="M127.677 101.664C130.38 99.3632 131.835 96.6355 130.927 95.572C130.019 94.5084 127.092 95.5117 124.389 97.8129C121.686 100.114 120.231 102.842 121.139 103.905C122.047 104.969 124.974 103.965 127.677 101.664Z" fill="#F4BB40"/>
<path d="M165.817 84.0694C168.965 82.4279 170.993 80.0925 170.346 78.8531C169.699 77.6136 166.623 77.9395 163.474 79.5809C160.326 81.2223 158.298 83.5577 158.945 84.7972C159.592 86.0366 162.668 85.7108 165.817 84.0694Z" fill="#F4BB40"/>
<path d="M146.908 93.536C146.627 92.6499 145.095 92.3462 143.488 92.8577C141.88 93.3691 140.805 94.502 141.086 95.3881C141.368 96.2741 142.899 96.5778 144.507 96.0664C146.115 95.5549 147.19 94.422 146.908 93.536Z" fill="#F4BB40"/>
<path d="M146.386 78.9634C145.996 77.735 144.194 77.2119 142.361 77.7951C140.527 78.3782 139.358 79.8467 139.748 81.0751C140.139 82.3035 141.941 82.8266 143.774 82.2434C145.607 81.6603 146.777 80.1918 146.386 78.9634Z" fill="#F4BB40"/>
<path d="M186.628 49.3596C186.564 47.9627 183.637 46.9667 180.091 47.135C176.545 47.3034 173.723 48.5722 173.787 49.9692C173.852 51.3661 176.778 52.3621 180.324 52.1938C183.87 52.0254 186.692 50.7566 186.628 49.3596Z" fill="#F4BB40"/>
<path d="M228.004 60.2151C228.253 58.8386 225.624 57.2155 222.131 56.59C218.638 55.9644 215.604 56.5731 215.355 57.9497C215.106 59.3262 217.735 60.9493 221.228 61.5749C224.721 62.2004 227.754 61.5917 228.004 60.2151Z" fill="#F4BB40"/>
<path d="M199.984 59.834C200.305 58.9606 199.282 57.7839 197.699 57.2058C196.116 56.6277 194.572 56.8672 194.251 57.7407C193.93 58.6142 194.953 59.7909 196.536 60.3689C198.119 60.947 199.663 60.7075 199.984 59.834Z" fill="#F4BB40"/>
<path d="M206.707 47.5706C207.152 46.3596 206.05 44.8437 204.245 44.1846C202.44 43.5255 200.616 43.9729 200.17 45.1838C199.725 46.3948 200.828 47.9108 202.633 48.5698C204.438 49.2289 206.262 48.7815 206.707 47.5706Z" fill="#F4BB40"/>
</g>
<path d="M331.731 148.266C331.337 151.794 332.143 154.78 333.533 154.935C334.922 155.089 336.368 152.354 336.763 148.826C337.157 145.297 336.351 142.311 334.961 142.156C333.572 142.002 332.125 144.737 331.731 148.266Z" fill="#252525"/>
<path d="M334.424 127.292C335.317 127.553 336.423 126.451 336.896 124.832C337.368 123.212 337.028 121.688 336.135 121.427C335.243 121.167 334.136 122.268 333.664 123.888C333.191 125.507 333.532 127.032 334.424 127.292Z" fill="#252525"/>
<path d="M24.373 116.038C25.8595 112.814 26.0351 109.726 24.7652 109.141C23.4953 108.556 21.2607 110.696 19.7741 113.92C18.2876 117.145 18.112 120.233 19.3819 120.818C20.6519 121.402 22.8864 119.263 24.373 116.038Z" fill="#252525"/>
<path d="M15.2066 135.093C14.4418 134.564 13.0445 135.261 12.0856 136.649C11.1266 138.037 10.9692 139.591 11.7339 140.12C12.4987 140.648 13.896 139.952 14.855 138.564C15.8139 137.176 15.9713 135.622 15.2066 135.093Z" fill="#252525"/>
<path d="M5.87903 123.885C4.8188 123.152 3.07298 123.841 1.97962 125.423C0.886272 127.006 0.859419 128.883 1.91964 129.616C2.97987 130.349 4.72569 129.66 5.81905 128.078C6.9124 126.495 6.93925 124.618 5.87903 123.885Z" fill="#252525"/>
<path d="M346.809 134.989C348.046 135.351 349.486 134.147 350.024 132.3C350.563 130.454 349.997 128.664 348.76 128.302C347.522 127.941 346.083 129.145 345.544 130.991C345.005 132.838 345.571 134.628 346.809 134.989Z" fill="#252525"/>
<defs>
<clipPath id="clip0_138_245">
<rect width="248.703" height="233.6" fill="white" transform="translate(17.2178 92.2312) rotate(-21.7679)"/>
</clipPath>
</defs>
</svg>
