<svg width="351" height="310" viewBox="0 0 351 310" fill="none" xmlns="http://www.w3.org/2000/svg">
<g clip-path="url(#clip0_150_474)">
<path d="M216.776 260.136C275.525 236.676 315.335 198.087 305.694 173.945C296.054 149.803 240.613 149.25 181.864 172.709C123.116 196.169 83.3054 234.758 92.9459 258.9C102.586 283.042 158.027 283.595 216.776 260.136Z" fill="#F7793B" stroke="#252525" stroke-width="5" stroke-miterlimit="10"/>
<path d="M205.328 235.33C264.077 211.87 303.715 172.851 293.863 148.178C284.011 123.506 228.398 122.523 169.65 145.983C110.901 169.442 71.2623 208.461 81.1145 233.134C90.9668 257.806 146.579 258.789 205.328 235.33Z" fill="#252525"/>
<path d="M83.1125 210.805C83.1125 210.805 83.1006 210.809 83.0911 210.82C76.6837 216.798 73.6765 230.618 82.4265 231.093C86.0992 231.295 97.9625 223.729 101.986 234.7C102.181 235.241 102.516 235.718 102.984 236.046C104.93 237.404 110.772 239.211 123.503 227.303C124.215 226.641 125.037 226.114 125.934 225.742C128.78 224.578 134.867 222.813 137.906 227.339C141.959 233.37 154.978 223.598 157.467 220.077C162.048 213.593 167.647 216.548 170.545 218.844C172.659 220.52 175.401 221.217 178.052 220.721C182.481 219.887 192.999 219.154 198.237 207.628C198.237 207.628 200.301 200.13 217.024 203.58C217.503 203.677 218.65 203.775 219.139 203.758C221.55 203.695 226.98 204.074 233.832 188.114C233.957 187.824 234.06 187.529 234.148 187.233C234.683 185.385 237.888 177.005 251.445 180.367C251.445 180.367 260.892 183.707 268.818 166.419C270.62 162.486 275.126 160.57 279.18 162.089C279.916 162.365 280.704 162.717 281.552 163.153C289.156 167.1 294.08 152.685 289.08 147.074C287.609 145.424 288.982 142.623 290.734 141.272C291.148 140.948 291.622 140.635 292.164 140.337C295.755 138.353 292.044 125.63 276.743 125.725C262.13 125.82 99.7555 202.524 85.1644 209.429C84.4177 209.782 83.7278 210.243 83.1267 210.806L83.1125 210.805Z" fill="#F7793B" stroke="#252525" stroke-width="5" stroke-miterlimit="10"/>
<path d="M191.145 194.366C249.894 170.906 291.402 136.57 283.856 117.673C276.31 98.776 222.567 102.475 163.819 125.935C105.07 149.394 63.5615 183.731 71.1075 202.628C78.6534 221.525 132.396 217.826 191.145 194.366Z" fill="#252525"/>
<path d="M245.242 137.604C261.346 131.173 271.825 119.509 268.647 111.552C265.47 103.595 249.839 102.358 233.735 108.789C217.631 115.219 207.152 126.883 210.329 134.84C213.507 142.797 229.138 144.034 245.242 137.604Z" fill="#FE7B39" stroke="#252525" stroke-width="4" stroke-miterlimit="10"/>
<path d="M242.319 130.284C258.423 123.854 268.902 112.19 265.725 104.233C262.547 96.2758 246.916 95.0385 230.812 101.469C214.708 107.9 204.229 119.564 207.407 127.521C210.584 135.478 226.215 136.715 242.319 130.284Z" fill="#F7793B" stroke="#252525" stroke-width="4" stroke-miterlimit="10"/>
<path d="M114.33 194.597C130.434 188.166 140.913 176.502 137.735 168.545C134.558 160.588 118.927 159.351 102.823 165.781C86.719 172.212 76.2399 183.876 79.4173 191.833C82.5948 199.79 98.2255 201.027 114.33 194.597Z" fill="#FE7B39" stroke="#252525" stroke-width="4" stroke-miterlimit="10"/>
<path d="M111.407 187.277C127.511 180.847 137.99 169.183 134.812 161.226C131.635 153.269 116.004 152.031 99.9002 158.462C83.7961 164.893 73.317 176.556 76.4945 184.514C79.6719 192.471 95.3027 193.708 111.407 187.277Z" fill="#F7793B" stroke="#252525" stroke-width="4" stroke-miterlimit="10"/>
<path d="M60.3205 160.48C59.0447 162.329 56.3634 166.633 55.5601 171.163C54.49 174.512 58.0522 177.487 61.3221 176.737C78.8319 172.732 137.58 160.725 174.494 170.359C179.717 171.72 185.133 169.571 188.101 165.069C200.472 146.329 234.033 100.945 273.14 93.8152C274.348 93.5938 275.448 92.9351 276.123 91.8964C278.183 88.7325 279.748 81.5987 259.02 75.3334C232.62 67.3443 75.3507 151.78 61.9103 159.035C61.2703 159.38 60.7229 159.874 60.3067 160.479L60.3205 160.48Z" fill="#F7793B" stroke="#252525" stroke-width="4" stroke-miterlimit="10"/>
<path d="M253.741 62.6247C252.474 60.7618 250.385 59.3575 249.312 58.255C225.171 33.2834 185.157 25.1694 131.581 46.5634C78.005 67.9575 52.9999 109.856 53.75 140.996C53.7994 143.084 53.0944 146.798 54.1846 148.546C54.1332 153.174 54.735 156.456 55.8039 159.133C57.7665 164.048 66.4598 165.224 78.4949 164.861C99.5265 164.228 133.969 153.873 170.131 139.432C203.89 125.952 232.308 110.127 248.694 96.6699C259.902 87.4635 265.483 79.3645 263.294 73.881C262 70.6418 259.109 67.8482 253.741 62.6247Z" fill="#252525"/>
<path d="M98.8452 212.411C98.2694 212.675 97.9767 213.321 98.1574 213.928C99.1494 217.24 102.78 226.419 110.148 214.557C118.332 201.396 112.485 219.323 111.608 221.953C111.532 222.175 111.52 222.421 111.578 222.652C111.891 223.92 113.398 227.177 119.536 213.905C120.319 212.213 124.158 223.705 124.781 221.025C127.873 207.624 159.23 201.364 166.534 201.784C167.464 201.839 167.12 206.803 166.686 207.628L166.474 208.029C165.573 209.735 167.6 211.486 169.156 210.35C172.824 207.663 182.279 187.793 185.832 201.843C187.239 207.399 189.564 181.101 215.53 175.971C215.676 175.94 268.373 150.709 268.519 150.678C269.917 150.387 277.671 147.058 282.979 150.355C283.856 150.898 282.88 148.692 282.451 147.758C281.452 145.582 277.983 142.91 266.941 143.021C249.283 143.192 111.761 206.464 98.844 212.425L98.8452 212.411Z" fill="#252525"/>
<path d="M161.3 158.332L175.809 159.96C176.84 160.077 177.842 159.622 178.441 158.779L187.104 146.524C187.323 146.21 186.927 145.84 186.631 146.081L176.673 154.713C176.069 155.235 175.328 155.566 174.544 155.673L161.269 157.41C160.742 157.504 160.769 158.262 161.297 158.326L161.3 158.332Z" fill="#252525"/>
<path d="M82.2878 109.079C84.4866 106.293 85.3776 103.334 84.278 102.47C83.1783 101.605 80.5044 103.162 78.3055 105.948C76.1067 108.733 75.2157 111.692 76.3153 112.556C77.415 113.421 80.089 111.864 82.2878 109.079Z" fill="#FE7B39"/>
<path d="M116.228 84.3448C118.993 82.1183 120.523 79.4314 119.645 78.3433C118.766 77.2553 115.813 78.1782 113.048 80.4047C110.283 82.6311 108.753 85.3181 109.631 86.4061C110.51 87.4941 113.463 86.5713 116.228 84.3448Z" fill="#FE7B39"/>
<path d="M99.1264 102.187C100.603 101.371 101.434 100.05 100.984 99.2362C100.534 98.4229 98.9718 98.4253 97.4954 99.2417C96.0191 100.058 95.1874 101.379 95.6377 102.193C96.0881 103.006 97.65 103.004 99.1264 102.187Z" fill="#FE7B39"/>
<path d="M94.1957 89.8763C95.879 88.9455 96.7374 87.2768 96.113 86.1492C95.4886 85.0215 93.6179 84.862 91.9346 85.7928C90.2513 86.7237 89.3929 88.3924 90.0173 89.52C90.6416 90.6476 92.5124 90.8072 94.1957 89.8763Z" fill="#FE7B39"/>
<path d="M130.926 60.8703C130.584 59.5148 127.516 59.1222 124.074 59.9934C120.632 60.8647 118.119 62.6699 118.461 64.0255C118.804 65.3811 121.871 65.7737 125.313 64.9024C128.755 64.0311 131.268 62.2259 130.926 60.8703Z" fill="#FE7B39"/>
<path d="M173.656 63.2731C173.625 61.8749 170.724 60.8088 167.175 60.8919C163.626 60.9749 160.774 62.1756 160.805 63.5737C160.836 64.9718 163.737 66.0379 167.286 65.9549C170.835 65.8719 173.687 64.6712 173.656 63.2731Z" fill="#FE7B39"/>
<path d="M146.119 68.4777C146.259 67.5581 145.021 66.6092 143.354 66.3584C141.687 66.1075 140.221 66.6497 140.081 67.5693C139.941 68.4889 141.179 69.4377 142.846 69.6886C144.514 69.9394 145.979 69.3973 146.119 68.4777Z" fill="#FE7B39"/>
<path d="M150.256 55.1253C150.45 53.8503 149.067 52.585 147.166 52.2989C145.265 52.0129 143.566 52.8146 143.371 54.0895C143.177 55.3644 144.561 56.6298 146.462 56.9158C148.363 57.2018 150.062 56.4002 150.256 55.1253Z" fill="#FE7B39"/>
<path d="M127.676 101.664C130.379 99.3632 131.835 96.6355 130.927 95.572C130.019 94.5084 127.091 95.5117 124.388 97.8129C121.685 100.114 120.23 102.842 121.138 103.905C122.046 104.969 124.973 103.965 127.676 101.664Z" fill="#FE7B39"/>
<path d="M165.817 84.0694C168.965 82.4279 170.993 80.0925 170.346 78.8531C169.699 77.6136 166.623 77.9395 163.474 79.5809C160.326 81.2223 158.298 83.5577 158.945 84.7972C159.592 86.0366 162.668 85.7108 165.817 84.0694Z" fill="#FE7B39"/>
<path d="M146.909 93.536C146.627 92.6499 145.096 92.3462 143.488 92.8577C141.88 93.3691 140.805 94.502 141.087 95.3881C141.368 96.2741 142.9 96.5778 144.508 96.0664C146.115 95.5549 147.19 94.422 146.909 93.536Z" fill="#FE7B39"/>
<path d="M146.386 78.9634C145.996 77.735 144.194 77.2119 142.361 77.7951C140.527 78.3782 139.358 79.8467 139.748 81.0751C140.139 82.3035 141.941 82.8266 143.774 82.2434C145.607 81.6603 146.777 80.1918 146.386 78.9634Z" fill="#FE7B39"/>
<path d="M186.627 49.3596C186.563 47.9627 183.636 46.9667 180.091 47.135C176.545 47.3034 173.722 48.5722 173.787 49.9692C173.851 51.3661 176.778 52.3621 180.324 52.1938C183.87 52.0254 186.692 50.7566 186.627 49.3596Z" fill="#FE7B39"/>
<path d="M228.004 60.2151C228.253 58.8386 225.624 57.2155 222.131 56.59C218.638 55.9644 215.604 56.5731 215.355 57.9497C215.106 59.3262 217.735 60.9493 221.228 61.5749C224.721 62.2004 227.754 61.5917 228.004 60.2151Z" fill="#FE7B39"/>
<path d="M199.984 59.834C200.305 58.9606 199.282 57.7839 197.699 57.2058C196.115 56.6277 194.572 56.8672 194.25 57.7407C193.929 58.6142 194.952 59.7909 196.536 60.3689C198.119 60.947 199.663 60.7075 199.984 59.834Z" fill="#FE7B39"/>
<path d="M206.707 47.5706C207.152 46.3596 206.05 44.8437 204.245 44.1846C202.44 43.5255 200.616 43.9729 200.17 45.1838C199.725 46.3948 200.828 47.9108 202.633 48.5698C204.438 49.2289 206.262 48.7815 206.707 47.5706Z" fill="#FE7B39"/>
</g>
<path d="M331.731 250.902C331.336 255.053 332.143 258.567 333.532 258.749C334.922 258.931 336.368 255.713 336.762 251.561C337.157 247.409 336.35 243.896 334.961 243.714C333.571 243.532 332.125 246.75 331.731 250.902Z" fill="#252525"/>
<path d="M334.424 226.225C335.317 226.532 336.423 225.236 336.896 223.33C337.368 221.425 337.028 219.631 336.135 219.324C335.243 219.018 334.136 220.314 333.664 222.219C333.191 224.125 333.532 225.918 334.424 226.225Z" fill="#252525"/>
<path d="M24.3735 212.984C25.86 209.19 26.0356 205.557 24.7657 204.869C23.4957 204.18 21.2612 206.698 19.7746 210.492C18.2881 214.286 18.1125 217.919 19.3824 218.607C20.6524 219.295 22.8869 216.777 24.3735 212.984Z" fill="#252525"/>
<path d="M15.2061 235.403C14.4413 234.781 13.044 235.601 12.0851 237.234C11.1261 238.867 10.9687 240.695 11.7335 241.318C12.4982 241.94 13.8955 241.12 14.8545 239.487C15.8134 237.854 15.9708 236.025 15.2061 235.403Z" fill="#252525"/>
<path d="M5.87951 222.216C4.81929 221.353 3.07347 222.164 1.98011 224.026C0.88676 225.888 0.859907 228.097 1.92013 228.959C2.98036 229.821 4.72618 229.011 5.81953 227.149C6.91289 225.287 6.93974 223.078 5.87951 222.216Z" fill="#252525"/>
<path d="M346.809 235.281C348.046 235.707 349.486 234.29 350.024 232.117C350.563 229.945 349.997 227.839 348.76 227.414C347.522 226.988 346.083 228.405 345.544 230.577C345.005 232.75 345.571 234.856 346.809 235.281Z" fill="#252525"/>
<defs>
<clipPath id="clip0_150_474">
<rect width="248.703" height="233.6" fill="white" transform="translate(17.2178 92.2312) rotate(-21.7679)"/>
</clipPath>
</defs>
</svg>
