<svg width="325" height="287" viewBox="0 0 325 287" fill="none" xmlns="http://www.w3.org/2000/svg">
<g clip-path="url(#clip0_77_407)">
<path d="M200.718 240.866C255.115 219.144 291.976 183.414 283.05 161.06C274.123 138.706 222.789 138.194 168.392 159.916C113.995 181.638 77.134 217.369 86.0603 239.722C94.9867 262.076 146.32 262.588 200.718 240.866Z" fill="#FE7B39" stroke="#252525" stroke-width="5" stroke-miterlimit="10"/>
<path d="M190.119 217.898C244.516 196.176 281.218 160.047 272.095 137.202C262.973 114.357 211.48 113.447 157.083 135.169C102.686 156.891 65.9836 193.02 75.1061 215.865C84.2286 238.71 135.721 239.62 190.119 217.898Z" fill="#252525"/>
<path d="M76.9556 195.189C76.9556 195.189 76.9446 195.194 76.9358 195.203C71.0031 200.738 68.2186 213.535 76.3204 213.975C79.7211 214.162 90.7056 207.156 94.4311 217.315C94.6116 217.815 94.9219 218.257 95.3554 218.561C97.1574 219.818 102.566 221.492 114.354 210.466C115.014 209.852 115.775 209.364 116.605 209.02C119.24 207.942 124.876 206.308 127.691 210.499C131.443 216.083 143.498 207.035 145.803 203.775C150.045 197.771 155.228 200.507 157.912 202.633C159.869 204.185 162.408 204.83 164.863 204.371C168.964 203.599 178.703 202.92 183.553 192.248C183.553 192.248 185.464 185.306 200.948 188.5C201.392 188.59 202.454 188.68 202.906 188.665C205.139 188.606 210.166 188.957 216.511 174.179C216.627 173.911 216.722 173.637 216.803 173.363C217.299 171.652 220.267 163.894 232.819 167.006C232.819 167.006 241.567 170.099 248.905 154.091C250.573 150.45 254.746 148.676 258.5 150.082C259.181 150.338 259.91 150.663 260.696 151.068C267.737 154.722 272.296 141.375 267.667 136.18C266.304 134.651 267.576 132.058 269.198 130.807C269.581 130.507 270.02 130.218 270.521 129.941C273.847 128.105 270.41 116.323 256.243 116.412C242.713 116.5 92.3658 187.522 78.8556 193.915C78.1642 194.242 77.5254 194.669 76.9688 195.19L76.9556 195.189Z" fill="#FE7B39" stroke="#252525" stroke-width="5" stroke-miterlimit="10"/>
<path d="M176.986 179.969C231.383 158.247 269.817 126.453 262.83 108.956C255.843 91.4591 206.081 94.8841 151.684 116.606C97.2869 138.328 58.8534 170.121 65.8404 187.619C72.8274 205.116 122.589 201.691 176.986 179.969Z" fill="#252525"/>
<path d="M227.075 127.411C241.986 121.456 251.689 110.657 248.747 103.289C245.805 95.9215 231.332 94.7758 216.421 100.73C201.51 106.685 191.807 117.484 194.749 124.852C197.691 132.219 212.164 133.365 227.075 127.411Z" fill="#FE7B39" stroke="#252525" stroke-width="4" stroke-miterlimit="10"/>
<path d="M224.369 120.634C239.28 114.679 248.983 103.88 246.041 96.512C243.099 89.1444 228.626 87.9987 213.715 93.953C198.803 99.9074 189.101 110.707 192.043 118.075C194.985 125.442 209.458 126.588 224.369 120.634Z" fill="#FE7B39" stroke="#252525" stroke-width="4" stroke-miterlimit="10"/>
<path d="M105.861 180.182C120.772 174.227 130.475 163.428 127.533 156.06C124.591 148.692 110.118 147.547 95.2066 153.501C80.2954 159.456 70.5925 170.255 73.5346 177.623C76.4767 184.99 90.9496 186.136 105.861 180.182Z" fill="#FE7B39" stroke="#252525" stroke-width="4" stroke-miterlimit="10"/>
<path d="M103.154 173.405C118.066 167.45 127.769 156.651 124.826 149.283C121.884 141.915 107.411 140.77 92.5003 146.724C77.5891 152.678 67.8862 163.478 70.8283 170.846C73.7704 178.213 88.2433 179.359 103.154 173.405Z" fill="#FE7B39" stroke="#252525" stroke-width="4" stroke-miterlimit="10"/>
<path d="M55.8517 148.593C54.6703 150.304 52.1877 154.29 51.4439 158.484C50.4531 161.585 53.7513 164.34 56.7791 163.646C72.9919 159.937 127.388 148.82 161.568 157.74C166.404 159 171.419 157.01 174.167 152.842C185.621 135.49 216.697 93.4676 252.907 86.8659C254.025 86.6609 255.043 86.051 255.669 85.0892C257.576 82.1597 259.025 75.5544 239.833 69.7531C215.388 62.3558 69.7685 140.537 57.3237 147.255C56.7311 147.574 56.2242 148.031 55.8389 148.592L55.8517 148.593Z" fill="#FE7B39" stroke="#252525" stroke-width="4" stroke-miterlimit="10"/>
<path d="M234.945 57.9859C233.772 56.261 231.838 54.9607 230.844 53.9399C208.492 30.818 171.441 23.305 121.834 43.1143C72.2264 62.9236 49.0734 101.718 49.768 130.552C49.8137 132.485 49.1609 135.924 50.1704 137.543C50.1229 141.828 50.6801 144.867 51.6697 147.345C53.487 151.896 61.5364 152.986 72.6799 152.649C92.1536 152.063 124.045 142.475 157.529 129.104C188.787 116.622 215.1 101.97 230.272 89.5093C240.65 80.9848 245.817 73.4857 243.79 68.4083C242.592 65.4091 239.915 62.8225 234.945 57.9859Z" fill="#252525"/>
<path d="M91.5228 196.677C90.9897 196.922 90.7187 197.519 90.886 198.082C91.8045 201.148 95.1664 209.647 101.989 198.664C109.566 186.477 104.152 203.077 103.34 205.512C103.27 205.718 103.259 205.945 103.312 206.159C103.603 207.333 104.998 210.349 110.681 198.061C111.406 196.493 114.96 207.134 115.537 204.653C118.4 192.244 147.434 186.448 154.197 186.837C155.058 186.888 154.74 191.484 154.338 192.248L154.142 192.619C153.307 194.199 155.185 195.82 156.625 194.768C160.022 192.28 168.777 173.883 172.066 186.892C173.369 192.036 175.522 167.686 199.565 162.936C199.7 162.907 248.493 139.545 248.629 139.516C249.923 139.247 257.102 136.164 262.017 139.218C262.83 139.72 261.925 137.678 261.528 136.813C260.603 134.798 257.391 132.324 247.167 132.427C230.817 132.585 103.482 191.17 91.5217 196.69L91.5228 196.677Z" fill="#252525"/>
<path d="M149.352 146.604L162.786 148.111C163.741 148.22 164.669 147.798 165.223 147.017L173.244 135.67C173.447 135.38 173.081 135.037 172.807 135.26L163.586 143.253C163.027 143.736 162.34 144.043 161.615 144.141L149.323 145.75C148.835 145.837 148.861 146.539 149.35 146.598L149.352 146.604Z" fill="#252525"/>
<path d="M76.192 100.999C78.228 98.4195 79.053 95.6797 78.0348 94.8791C77.0166 94.0786 74.5407 95.5204 72.5048 98.0994C70.4688 100.679 69.6438 103.418 70.662 104.219C71.6802 105.019 74.1561 103.578 76.192 100.999Z" fill="#FE7B39"/>
<path d="M107.619 78.0969C110.179 76.0354 111.595 73.5475 110.782 72.54C109.969 71.5326 107.234 72.3871 104.674 74.4486C102.113 76.5102 100.697 78.9981 101.511 80.0055C102.324 81.013 105.059 80.1584 107.619 78.0969Z" fill="#FE7B39"/>
<path d="M91.7836 94.6178C93.1506 93.8619 93.9208 92.6386 93.5037 91.8855C93.0867 91.1323 91.6405 91.1346 90.2735 91.8905C88.9065 92.6465 88.1364 93.8698 88.5534 94.6229C88.9704 95.376 90.4167 95.3738 91.7836 94.6178Z" fill="#FE7B39"/>
<path d="M87.2184 83.2187C88.777 82.3568 89.5719 80.8117 88.9938 79.7676C88.4156 78.7235 86.6834 78.5758 85.1248 79.4377C83.5662 80.2996 82.7714 81.8447 83.3495 82.8888C83.9277 83.9329 85.6598 84.0806 87.2184 83.2187Z" fill="#FE7B39"/>
<path d="M121.227 56.3613C120.91 55.1061 118.07 54.7426 114.883 55.5493C111.696 56.3561 109.369 58.0276 109.686 59.2827C110.003 60.5379 112.843 60.9014 116.03 60.0947C119.217 59.288 121.544 57.6165 121.227 56.3613Z" fill="#FE7B39"/>
<path d="M160.792 58.5861C160.764 57.2916 158.077 56.3044 154.791 56.3813C151.506 56.4582 148.865 57.5699 148.893 58.8645C148.922 60.159 151.608 61.1462 154.894 61.0693C158.18 60.9924 160.821 59.8807 160.792 58.5861Z" fill="#FE7B39"/>
<path d="M135.295 63.4051C135.425 62.5536 134.279 61.675 132.735 61.4428C131.191 61.2105 129.834 61.7125 129.704 62.564C129.575 63.4154 130.721 64.294 132.265 64.5263C133.809 64.7585 135.165 64.2566 135.295 63.4051Z" fill="#FE7B39"/>
<path d="M139.126 51.0418C139.306 49.8613 138.025 48.6897 136.264 48.4248C134.504 48.16 132.931 48.9023 132.751 50.0828C132.571 51.2632 133.852 52.4349 135.613 52.6997C137.373 52.9646 138.946 52.2223 139.126 51.0418Z" fill="#FE7B39"/>
<path d="M118.219 94.1337C120.722 92.003 122.069 89.4774 121.228 88.4926C120.388 87.5079 117.677 88.4368 115.175 90.5675C112.672 92.6983 111.324 95.2239 112.165 96.2086C113.006 97.1934 115.716 96.2644 118.219 94.1337Z" fill="#FE7B39"/>
<path d="M153.534 77.8418C156.449 76.322 158.327 74.1596 157.728 73.0119C157.129 71.8643 154.28 72.166 151.365 73.6858C148.449 75.2057 146.572 77.3681 147.171 78.5157C147.77 79.6634 150.618 79.3616 153.534 77.8418Z" fill="#FE7B39"/>
<path d="M136.026 86.6072C135.765 85.7868 134.347 85.5056 132.859 85.9792C131.37 86.4527 130.375 87.5017 130.635 88.3221C130.896 89.1425 132.314 89.4237 133.803 88.9502C135.291 88.4766 136.287 87.4276 136.026 86.6072Z" fill="#FE7B39"/>
<path d="M135.543 73.1142C135.181 71.9768 133.512 71.4924 131.815 72.0324C130.118 72.5723 129.035 73.9321 129.396 75.0695C129.758 76.2069 131.427 76.6912 133.124 76.1513C134.821 75.6113 135.904 74.2516 135.543 73.1142Z" fill="#FE7B39"/>
<path d="M172.803 45.7032C172.744 44.4098 170.034 43.4876 166.751 43.6434C163.467 43.7993 160.854 44.9742 160.914 46.2676C160.973 47.5611 163.683 48.4833 166.966 48.3274C170.25 48.1716 172.863 46.9967 172.803 45.7032Z" fill="#FE7B39"/>
<path d="M211.115 55.7547C211.345 54.4801 208.911 52.9773 205.677 52.398C202.443 51.8188 199.634 52.3824 199.403 53.657C199.172 54.9316 201.606 56.4344 204.84 57.0137C208.075 57.5929 210.884 57.0292 211.115 55.7547Z" fill="#FE7B39"/>
<path d="M185.17 55.4018C185.468 54.5931 184.52 53.5035 183.054 52.9683C181.588 52.4331 180.159 52.6548 179.862 53.4636C179.564 54.2723 180.512 55.3619 181.978 55.8971C183.443 56.4323 184.873 56.2106 185.17 55.4018Z" fill="#FE7B39"/>
<path d="M191.395 44.0467C191.807 42.9254 190.787 41.5218 189.115 40.9115C187.444 40.3012 185.755 40.7155 185.342 41.8367C184.93 42.958 185.951 44.3617 187.622 44.9719C189.294 45.5822 190.983 45.1679 191.395 44.0467Z" fill="#FE7B39"/>
</g>
<path d="M307.158 137.283C306.793 140.55 307.54 143.315 308.826 143.458C310.113 143.601 311.452 141.069 311.817 137.802C312.182 134.534 311.436 131.77 310.149 131.626C308.862 131.483 307.523 134.016 307.158 137.283Z" fill="#252525"/>
<path d="M309.652 117.863C310.478 118.105 311.503 117.085 311.94 115.585C312.378 114.085 312.062 112.674 311.236 112.433C310.41 112.191 309.385 113.211 308.948 114.711C308.51 116.21 308.825 117.622 309.652 117.863Z" fill="#252525"/>
<path d="M22.5677 107.443C23.9441 104.457 24.1067 101.598 22.9308 101.056C21.755 100.515 19.6859 102.496 18.3095 105.482C16.9331 108.467 16.7705 111.327 17.9464 111.868C19.1222 112.41 21.1913 110.428 22.5677 107.443Z" fill="#252525"/>
<path d="M14.0799 125.086C13.3718 124.597 12.0779 125.242 11.19 126.527C10.3021 127.812 10.1564 129.251 10.8645 129.74C11.5726 130.23 12.8664 129.585 13.7543 128.3C14.6422 127.014 14.788 125.576 14.0799 125.086Z" fill="#252525"/>
<path d="M5.44364 114.708C4.46195 114.029 2.84544 114.667 1.83308 116.133C0.820717 117.598 0.795853 119.336 1.77754 120.015C2.75923 120.693 4.37574 120.056 5.3881 118.59C6.40046 117.125 6.42533 115.387 5.44364 114.708Z" fill="#252525"/>
<path d="M321.119 124.99C322.265 125.325 323.598 124.21 324.097 122.5C324.596 120.791 324.071 119.133 322.926 118.799C321.78 118.464 320.447 119.579 319.948 121.288C319.449 122.998 319.974 124.656 321.119 124.99Z" fill="#252525"/>
<defs>
<clipPath id="clip0_77_407">
<rect width="230.281" height="216.296" fill="white" transform="translate(15.9421 85.3992) rotate(-21.7679)"/>
</clipPath>
</defs>
</svg>
