<svg width="318" height="378" viewBox="0 0 318 378" fill="none" xmlns="http://www.w3.org/2000/svg">
<g clip-path="url(#clip0_77_546)">
<path d="M57.9757 320.03L23.3224 288.989C17.4281 283.71 16.6933 269.802 24.2719 261.839L118.577 158.558C123.857 152.664 129.322 147.114 142.335 145.954L184.178 185.134C187.662 192.724 182.695 203.747 177.415 209.641L82.0212 317.146C76.7413 323.04 63.8701 325.31 57.9757 320.03Z" fill="#252525"/>
<path d="M245.733 98.5332L221.857 77.1467C220.619 76.0373 220.693 74.0769 222.011 73.0643L224.644 71.0415C227.392 68.9295 231.252 69.0629 233.851 71.3556L245.057 81.1846L250.011 85.6221C253.327 88.5483 253.622 93.613 250.671 96.9067L249.392 98.3342C248.437 99.4007 246.799 99.4884 245.735 98.5354L245.733 98.5332Z" fill="#252525"/>
<path d="M235.201 109.954L211.858 89.1441C210.619 88.0347 210.87 84.7558 212.19 83.7408L215.16 81.0197C217.908 78.9077 222.816 76.1791 225.415 78.4765L236.574 87.5984L244.094 93.3166C247.409 96.2427 243.785 104.594 240.835 107.888L239.556 109.316C238.601 110.382 236.272 110.909 235.206 109.954L235.201 109.954Z" fill="#252525"/>
<path d="M192.335 168.166L160.84 136.175C170.855 127.984 197.355 101.76 198.675 100.75L204.334 95.9245C207.082 93.8125 211.229 89.6119 212.62 87.927L225.554 98.5597L238.491 105.74C232.957 113.854 229.67 117.523 226.516 122.098L214.418 137.716C213.463 138.782 200.163 156.443 192.338 168.169L192.335 168.166Z" fill="#252525"/>
<path d="M164.334 133.264C164.334 133.264 155.466 141.702 142.335 145.954C129.604 149.272 183.372 208.097 185.345 192.396C186.411 183.92 188.122 176.567 195.049 163.835C201.976 151.103 164.334 133.264 164.334 133.264Z" fill="#252525"/>
<path d="M115.173 166.958C115.173 166.958 143.926 185.074 142.502 203.644C142.083 209.13 138.83 212.537 137.294 214.407C135.238 216.912 131.476 220.903 123.552 229.749C123.552 229.749 107.579 248.23 94.3337 261.68C81.0841 275.131 71.9874 280.755 46.3502 244.301" fill="#F4BB40"/>
<path d="M174.709 196.812C175.171 196.297 175.128 195.505 174.613 195.044C174.098 194.583 173.307 194.627 172.845 195.143L171.345 196.818C170.884 197.333 170.927 198.124 171.441 198.585C171.956 199.046 172.747 199.002 173.209 198.487L174.709 196.812Z" fill="#F4BB40"/>
<path d="M98.233 246.774C98.6946 246.258 98.6516 245.467 98.137 245.006C97.6223 244.545 96.8309 244.589 96.3692 245.104L94.8691 246.779C94.4075 247.294 94.4505 248.086 94.9651 248.547C95.4798 249.008 96.2713 248.964 96.7329 248.448L98.233 246.774Z" fill="#252525"/>
<path d="M167.801 204.826C168.263 204.311 168.22 203.519 167.705 203.058C167.191 202.597 166.399 202.641 165.938 203.157L160.675 209.032C160.213 209.547 160.256 210.339 160.771 210.8C161.286 211.261 162.077 211.217 162.539 210.701L167.801 204.826Z" fill="#F4BB40"/>
<path d="M229.378 111.955C229.794 111.403 229.684 110.618 229.133 110.202C228.581 109.786 227.796 109.897 227.38 110.45L208.367 135.687C207.95 136.24 208.06 137.025 208.612 137.441C209.164 137.856 209.949 137.745 210.365 137.193L229.378 111.955Z" fill="#F4BB40"/>
<path d="M244.237 97.5993L243.94 98.4082C242.998 99.6306 240.473 96.9882 239.959 96.528L222.214 80.8692C221.701 80.4089 220.837 79.9241 221.355 79.0247L222.392 77.9445C222.853 77.4307 223.368 78.543 223.884 79.0054L243.392 96.323C243.906 96.7833 244.697 97.0855 244.235 97.6017L244.237 97.5993Z" fill="#F4BB40"/>
<path d="M207.411 142.16C207.827 141.607 207.717 140.822 207.165 140.407C206.613 139.991 205.829 140.102 205.412 140.654L190.764 160.099C190.347 160.652 190.457 161.437 191.009 161.852C191.561 162.268 192.346 162.157 192.762 161.605L207.411 142.16Z" fill="#F4BB40"/>
<path d="M106.981 237.105C107.442 236.59 107.399 235.798 106.885 235.337C106.37 234.876 105.578 234.92 105.117 235.436L99.8543 241.311C99.3927 241.826 99.4357 242.618 99.9504 243.079C100.465 243.54 101.256 243.496 101.718 242.98L106.981 237.105Z" fill="#252525"/>
<path d="M156.47 217.676C156.932 217.161 156.889 216.369 156.374 215.908C155.86 215.447 155.068 215.491 154.607 216.006L134.093 238.907C133.631 239.423 133.674 240.214 134.189 240.675C134.704 241.136 135.495 241.092 135.957 240.577L156.47 217.676Z" fill="#F4BB40"/>
<path d="M131.395 209.796C131.857 209.281 131.814 208.489 131.299 208.028C130.784 207.567 129.993 207.611 129.531 208.126L109.018 231.028C108.556 231.543 108.599 232.334 109.114 232.795C109.628 233.256 110.42 233.212 110.881 232.697L131.395 209.796Z" fill="#252525"/>
<path d="M120.639 170.872C121.101 170.356 121.058 169.565 120.543 169.104C120.029 168.643 119.237 168.687 118.775 169.202L90.2594 201.037C89.7978 201.552 89.8408 202.344 90.3555 202.805C90.8702 203.266 91.6616 203.222 92.1232 202.706L120.639 170.872Z" fill="#252525"/>
<path d="M121.177 256.462C121.639 255.946 121.596 255.155 121.081 254.694C120.567 254.233 119.775 254.277 119.314 254.792L83.77 294.472C83.3084 294.988 83.3514 295.779 83.866 296.24C84.3807 296.701 85.1722 296.657 85.6338 296.142L121.177 256.462Z" fill="#F4BB40"/>
<path d="M74.0532 307.597L72.5675 306.266C72.1627 305.904 72.6951 305.319 73.2929 305.252C73.6821 305.207 74.0372 305.001 74.2974 304.706L77.8884 300.658C78.2987 300.2 79.3345 300.136 79.8483 300.596C80.3621 301.056 80.4471 301.805 80.0367 302.263L75.7642 307.033C75.3539 307.491 74.5694 308.06 74.0556 307.599L74.0532 307.597Z" fill="#F4BB40"/>
<path d="M67.6693 312.149L66.2709 310.73C65.8365 310.289 65.7553 309.609 66.0765 309.08C66.1102 309.022 66.1558 308.971 66.2089 308.932C66.6232 308.63 67.1575 308.541 67.6476 308.696L69.2119 309.193C69.2518 309.207 69.2872 309.221 69.3252 309.242C69.8779 309.571 70.5787 310.456 70.5284 311.093C70.5207 311.204 70.4709 311.303 70.3971 311.386L69.8348 312.014C69.2703 312.644 68.3059 312.706 67.6671 312.151L67.6693 312.149Z" fill="#F4BB40"/>
<path d="M119.435 170.251C118.921 169.791 118.875 168.998 119.337 168.482L132.053 154.715L133.094 153.826C133.54 153.548 133.849 153.262 134.26 153.189C134.575 153.134 135.527 152.9 135.956 152.782L142.503 151.399C143.11 151.296 143.712 151.136 144.29 150.925L153.779 147.442C154.183 147.293 154.639 147.452 154.864 147.82C154.986 148.016 155.09 148.232 155.154 148.443C155.289 148.878 155.056 149.342 154.635 149.51L147.538 152.318C146.868 152.553 143.893 153.378 143.204 153.538L135.621 155.356C135.059 155.525 134.404 155.934 134.011 156.368L121.201 170.156C120.741 170.67 119.949 170.716 119.432 170.254L119.435 170.251Z" fill="#F4BB40"/>
</g>
<path d="M296.07 83.9355C298.675 76.1852 304.513 79.4667 309.423 68.9866C313.118 71.095 314.001 79.0871 311.396 86.8374C308.79 94.5877 303.682 99.1614 299.987 97.053C296.292 94.9446 293.464 91.6859 296.07 83.9355Z" fill="#252525"/>
<path d="M177.849 88.3185C175.22 94.517 169.869 91.6901 164.817 100.063C160.78 98.3508 159.638 91.9376 162.267 85.7392C164.897 79.5407 170.301 75.9042 174.339 77.6168C178.376 79.3294 180.479 82.12 177.849 88.3185Z" fill="#252525"/>
<defs>
<clipPath id="clip0_77_546">
<rect width="79.9235" height="303.301" fill="white" transform="translate(212.718 51.4519) rotate(41.8526)"/>
</clipPath>
</defs>
</svg>
