<svg width="337" height="371" viewBox="0 0 337 371" fill="none" xmlns="http://www.w3.org/2000/svg">
<g clip-path="url(#clip0_150_426)">
<path d="M245.732 84.5329L221.857 63.1464C220.618 62.0371 220.693 60.0766 222.01 59.064L224.643 57.0413C227.391 54.9292 231.251 55.0626 233.85 57.3553L245.057 67.1843L250.011 71.6219C253.326 74.548 253.621 79.6127 250.671 82.9065L249.392 84.334C248.437 85.4004 246.799 85.4882 245.735 84.5351L245.732 84.5329Z" fill="#252525"/>
<path d="M235.2 95.9536L211.857 75.1439C210.618 74.0345 210.869 70.7556 212.189 69.7405L215.159 67.0195C217.907 64.9074 222.815 62.1789 225.414 64.4762L236.573 73.5981L244.093 79.3163C247.408 82.2425 243.784 90.5942 240.834 93.888L239.555 95.3155C238.6 96.3819 236.271 96.9086 235.205 95.9534L235.2 95.9536Z" fill="#252525"/>
<mask id="path-3-inside-1_150_426" fill="white">
<path fill-rule="evenodd" clip-rule="evenodd" d="M191.926 93.1898C183.21 101.609 168.369 115.944 161.187 121.889C157.5 124.727 150.804 129.211 142.334 131.954C129.321 133.114 123.856 138.664 118.576 144.558L24.2711 247.839C16.6924 255.802 17.4272 269.709 23.3215 274.989L57.9749 306.03C63.8692 311.31 76.7405 309.04 82.0203 303.146L177.414 195.641C181.018 191.617 184.477 185.204 185.201 179.124C185.263 178.902 185.31 178.659 185.344 178.396C186.365 170.275 187.978 163.186 194.203 151.41C202.108 139.861 213.534 124.701 214.417 123.715L226.515 108.098C227.832 106.189 229.171 104.438 230.687 102.455C232.804 99.687 235.266 96.4682 238.49 91.7403L225.553 84.5596L212.62 73.9268C211.228 75.6117 207.081 79.8123 204.333 81.9244L198.674 86.7496C198.282 87.0497 195.669 89.5741 191.926 93.1896L191.926 93.1898Z"/>
</mask>
<path fill-rule="evenodd" clip-rule="evenodd" d="M191.926 93.1898C183.21 101.609 168.369 115.944 161.187 121.889C157.5 124.727 150.804 129.211 142.334 131.954C129.321 133.114 123.856 138.664 118.576 144.558L24.2711 247.839C16.6924 255.802 17.4272 269.709 23.3215 274.989L57.9749 306.03C63.8692 311.31 76.7405 309.04 82.0203 303.146L177.414 195.641C181.018 191.617 184.477 185.204 185.201 179.124C185.263 178.902 185.31 178.659 185.344 178.396C186.365 170.275 187.978 163.186 194.203 151.41C202.108 139.861 213.534 124.701 214.417 123.715L226.515 108.098C227.832 106.189 229.171 104.438 230.687 102.455C232.804 99.687 235.266 96.4682 238.49 91.7403L225.553 84.5596L212.62 73.9268C211.228 75.6117 207.081 79.8123 204.333 81.9244L198.674 86.7496C198.282 87.0497 195.669 89.5741 191.926 93.1896L191.926 93.1898Z" fill="#252525"/>
<path d="M161.187 121.889L161.797 122.681L161.811 122.67L161.825 122.659L161.187 121.889ZM191.926 93.1898L192.62 93.9091L192.623 93.9067L191.926 93.1898ZM142.334 131.954L142.423 132.95L142.535 132.94L142.642 132.905L142.334 131.954ZM118.576 144.558L119.315 145.232L119.321 145.225L118.576 144.558ZM24.2711 247.839L24.9955 248.528L25.0026 248.521L25.0095 248.513L24.2711 247.839ZM23.3215 274.989L22.6543 275.734L23.3215 274.989ZM57.9749 306.03L58.6421 305.285L57.9749 306.03ZM82.0203 303.146L82.7652 303.813L82.7683 303.809L82.0203 303.146ZM177.414 195.641L176.669 194.974L176.666 194.977L177.414 195.641ZM185.201 179.124L184.237 178.856L184.217 178.93L184.208 179.006L185.201 179.124ZM185.344 178.396L184.351 178.271L184.351 178.271L185.344 178.396ZM194.203 151.41L193.378 150.845L193.346 150.892L193.319 150.942L194.203 151.41ZM214.417 123.715L215.162 124.383L215.186 124.356L215.208 124.328L214.417 123.715ZM226.515 108.098L227.306 108.71L227.323 108.688L227.339 108.665L226.515 108.098ZM230.687 102.455L231.481 103.063L231.481 103.063L230.687 102.455ZM238.49 91.7403L239.316 92.3038L239.934 91.3981L238.975 90.866L238.49 91.7403ZM225.553 84.5596L224.918 85.3321L224.988 85.3898L225.068 85.4339L225.553 84.5596ZM212.62 73.9268L213.255 73.1544L212.484 72.5207L211.849 73.2901L212.62 73.9268ZM204.333 81.9244L203.724 81.1315L203.704 81.147L203.684 81.1635L204.333 81.9244ZM198.674 86.7496L199.282 87.5437L199.303 87.5277L199.323 87.5106L198.674 86.7496ZM191.926 93.1896L191.231 92.4704L191.229 92.4727L191.926 93.1896ZM161.825 122.659C169.045 116.683 183.921 102.312 192.62 93.9091L191.231 92.4706C182.499 100.905 167.694 115.204 160.549 121.118L161.825 122.659ZM142.642 132.905C151.26 130.114 158.058 125.559 161.797 122.681L160.577 121.096C156.942 123.894 150.348 128.307 142.026 131.002L142.642 132.905ZM119.321 145.225C121.957 142.283 124.562 139.517 128.083 137.33C131.588 135.152 136.054 133.518 142.423 132.95L142.245 130.958C135.601 131.55 130.828 133.27 127.028 135.631C123.243 137.982 120.476 140.939 117.832 143.891L119.321 145.225ZM25.0095 248.513L119.315 145.232L117.838 143.884L23.5326 247.164L25.0095 248.513ZM23.9887 274.244C21.3275 271.861 19.718 267.387 19.7439 262.425C19.7697 257.493 21.4162 252.289 24.9955 248.528L23.5467 247.149C19.5472 251.352 17.7718 257.083 17.7439 262.415C17.7162 267.718 19.4212 272.838 22.6543 275.734L23.9887 274.244ZM58.6421 305.285L23.9887 274.244L22.6543 275.734L57.3077 306.775L58.6421 305.285ZM81.2755 302.478C78.8375 305.2 74.5458 307.166 70.0897 307.788C65.6194 308.412 61.2792 307.647 58.6421 305.285L57.3077 306.775C60.5648 309.693 65.6074 310.433 70.3663 309.769C75.1395 309.102 79.9233 306.985 82.7652 303.813L81.2755 302.478ZM176.666 194.977L81.2723 302.482L82.7683 303.809L178.162 196.305L176.666 194.977ZM184.208 179.006C183.513 184.84 180.167 191.069 176.669 194.974L178.159 196.308C181.869 192.166 185.441 185.568 186.194 179.243L184.208 179.006ZM184.351 178.271C184.324 178.492 184.285 178.687 184.237 178.856L186.164 179.392C186.241 179.117 186.297 178.826 186.336 178.52L184.351 178.271ZM193.319 150.942C187.033 162.834 185.387 170.041 184.351 178.271L186.336 178.52C187.344 170.509 188.924 163.538 195.087 151.877L193.319 150.942ZM213.672 123.048C213.19 123.586 210.075 127.676 206.139 133.007C202.181 138.368 197.34 145.056 193.378 150.845L195.028 151.975C198.971 146.214 203.796 139.548 207.748 134.195C211.722 128.813 214.761 124.83 215.162 124.383L213.672 123.048ZM225.725 107.485L213.627 123.103L215.208 124.328L227.306 108.71L225.725 107.485ZM229.893 101.848C228.379 103.827 227.025 105.598 225.692 107.53L227.339 108.665C228.639 106.78 229.963 105.048 231.481 103.063L229.893 101.848ZM237.664 91.1769C234.455 95.8813 232.007 99.0825 229.893 101.848L231.481 103.063C233.601 100.291 236.076 97.055 239.316 92.3038L237.664 91.1769ZM225.068 85.4339L238.005 92.6147L238.975 90.866L226.038 83.6853L225.068 85.4339ZM211.985 74.6993L224.918 85.3321L226.188 83.7871L213.255 73.1544L211.985 74.6993ZM204.943 82.7173C207.758 80.5532 211.959 76.2979 213.391 74.5636L211.849 73.2901C210.498 74.9255 206.404 79.0715 203.724 81.1315L204.943 82.7173ZM199.323 87.5106L204.982 82.6853L203.684 81.1635L198.025 85.9887L199.323 87.5106ZM192.621 93.9089C194.493 92.1005 196.08 90.5673 197.248 89.4486C197.833 88.8891 198.31 88.4357 198.664 88.1045C198.841 87.9387 198.985 87.806 199.095 87.7071C199.15 87.6576 199.194 87.6185 199.228 87.5891C199.245 87.5744 199.258 87.5632 199.268 87.555C199.279 87.5463 199.283 87.5431 199.282 87.5437L198.066 85.9556C197.813 86.1494 197.004 86.9138 195.865 88.0041C194.693 89.1265 193.102 90.6633 191.231 92.4704L192.621 93.9089ZM192.623 93.9067L192.623 93.9065L191.229 92.4727L191.228 92.473L192.623 93.9067Z" fill="#F7793B" mask="url(#path-3-inside-1_150_426)"/>
<path d="M115.172 152.957C115.172 152.957 143.925 171.073 142.502 189.643C142.082 195.13 138.829 198.537 137.294 200.407C135.238 202.912 131.476 206.903 123.551 215.749C123.551 215.749 107.578 234.23 94.3332 247.68C81.0836 261.13 71.9869 266.755 46.3497 230.301" fill="#F7793B"/>
<path d="M174.709 182.812C175.17 182.297 175.127 181.505 174.613 181.044C174.098 180.583 173.306 180.627 172.845 181.143L171.345 182.817C170.883 183.333 170.926 184.124 171.441 184.585C171.955 185.046 172.747 185.002 173.208 184.487L174.709 182.812Z" fill="#FE7B39"/>
<path d="M98.233 232.773C98.6946 232.258 98.6516 231.466 98.137 231.005C97.6223 230.544 96.8309 230.588 96.3692 231.104L94.8691 232.779C94.4075 233.294 94.4505 234.085 94.9651 234.546C95.4798 235.007 96.2713 234.963 96.7329 234.448L98.233 232.773Z" fill="#252525"/>
<path d="M167.8 190.826C168.262 190.311 168.219 189.519 167.704 189.058C167.19 188.597 166.398 188.641 165.937 189.156L160.674 195.031C160.213 195.547 160.256 196.338 160.77 196.799C161.285 197.26 162.076 197.216 162.538 196.701L167.8 190.826Z" fill="#FE7B39"/>
<path d="M229.378 97.9549C229.794 97.4023 229.684 96.6173 229.132 96.2015C228.58 95.7858 227.795 95.8967 227.379 96.4493L208.366 121.687C207.95 122.239 208.06 123.024 208.612 123.44C209.164 123.856 209.949 123.745 210.365 123.192L229.378 97.9549Z" fill="#FE7B39"/>
<path d="M244.236 83.599L243.939 84.408C242.997 85.6304 240.472 82.988 239.958 82.5277L222.213 66.869C221.7 66.4087 220.836 65.9239 221.354 65.0244L222.391 63.9443C222.852 63.4305 223.367 64.5427 223.883 65.0052L243.391 82.3228C243.905 82.7831 244.696 83.0852 244.234 83.6014L244.236 83.599Z" fill="#FE7B39"/>
<path d="M207.41 128.16C207.826 127.607 207.716 126.822 207.164 126.406C206.612 125.991 205.828 126.102 205.411 126.654L190.763 146.099C190.346 146.651 190.456 147.436 191.008 147.852C191.56 148.268 192.345 148.157 192.761 147.604L207.41 128.16Z" fill="#FE7B39"/>
<path d="M106.98 223.105C107.442 222.59 107.399 221.798 106.884 221.337C106.369 220.876 105.578 220.92 105.116 221.436L99.8538 227.31C99.3922 227.826 99.4352 228.617 99.9499 229.078C100.465 229.539 101.256 229.495 101.718 228.98L106.98 223.105Z" fill="#252525"/>
<path d="M156.47 203.676C156.932 203.16 156.889 202.369 156.374 201.908C155.86 201.447 155.068 201.491 154.607 202.006L134.093 224.907C133.631 225.423 133.674 226.214 134.189 226.675C134.704 227.136 135.495 227.092 135.957 226.577L156.47 203.676Z" fill="#FE7B39"/>
<path d="M131.395 195.796C131.857 195.28 131.814 194.489 131.299 194.028C130.784 193.567 129.993 193.611 129.531 194.126L109.018 217.027C108.556 217.543 108.599 218.334 109.114 218.795C109.628 219.256 110.42 219.212 110.881 218.697L131.395 195.796Z" fill="#252525"/>
<path d="M120.638 156.871C121.1 156.356 121.057 155.565 120.542 155.104C120.028 154.643 119.236 154.687 118.775 155.202L90.2585 187.037C89.7968 187.552 89.8398 188.343 90.3545 188.804C90.8692 189.265 91.6606 189.221 92.1222 188.706L120.638 156.871Z" fill="#252525"/>
<path d="M121.176 242.461C121.638 241.946 121.595 241.155 121.08 240.694C120.566 240.233 119.774 240.277 119.313 240.792L83.769 280.472C83.3074 280.987 83.3504 281.779 83.8651 282.24C84.3797 282.701 85.1712 282.657 85.6328 282.142L121.176 242.461Z" fill="#FE7B39"/>
<path d="M74.0527 293.597L72.567 292.266C72.1623 291.903 72.6947 291.319 73.2924 291.251C73.6816 291.207 74.0367 291.001 74.297 290.705L77.8879 286.657C78.2983 286.199 79.334 286.135 79.8478 286.596C80.3616 287.056 80.4466 287.805 80.0363 288.263L75.7637 293.033C75.3534 293.491 74.5689 294.059 74.0551 293.599L74.0527 293.597Z" fill="#FE7B39"/>
<path d="M67.6693 298.149L66.2709 296.73C65.8365 296.289 65.7553 295.609 66.0765 295.08C66.1102 295.022 66.1558 294.971 66.2089 294.932C66.6232 294.63 67.1575 294.541 67.6476 294.696L69.2119 295.193C69.2518 295.207 69.2872 295.221 69.3252 295.242C69.8779 295.571 70.5787 296.456 70.5284 297.093C70.5207 297.204 70.4709 297.303 70.3971 297.386L69.8348 298.014C69.2703 298.644 68.3059 298.706 67.6671 298.151L67.6693 298.149Z" fill="#FE7B39"/>
<path d="M119.434 156.251C118.92 155.791 118.874 154.998 119.336 154.482L132.052 140.715L133.093 139.826C133.539 139.548 133.848 139.262 134.259 139.188C134.574 139.134 135.527 138.9 135.956 138.782L142.502 137.399C143.109 137.296 143.711 137.136 144.289 136.925L153.778 133.442C154.182 133.293 154.638 133.452 154.863 133.82C154.985 134.016 155.089 134.232 155.153 134.442C155.288 134.877 155.055 135.342 154.634 135.51L147.537 138.318C146.867 138.553 143.892 139.378 143.203 139.538L135.62 141.356C135.058 141.525 134.403 141.934 134.01 142.368L121.2 156.156C120.74 156.67 119.948 156.716 119.431 156.253L119.434 156.251Z" fill="#FE7B39"/>
</g>
<path d="M296.07 151.148C298.675 142.029 304.513 145.89 309.423 133.559C313.118 136.04 314.001 145.443 311.396 154.562C308.79 163.681 303.682 169.062 299.987 166.582C296.292 164.101 293.464 160.267 296.07 151.148Z" fill="#252525"/>
<path d="M177.849 74.3185C175.219 80.517 169.868 77.6901 164.816 86.0634C160.779 84.3508 159.637 77.9376 162.267 71.7392C164.896 65.5407 170.3 61.9042 174.338 63.6168C178.375 65.3294 180.478 68.12 177.849 74.3185Z" fill="#252525"/>
<defs>
<clipPath id="clip0_150_426">
<rect width="79.9235" height="303.301" fill="white" transform="translate(212.718 37.4517) rotate(41.8526)"/>
</clipPath>
</defs>
</svg>
