<svg width="170" height="256" viewBox="0 0 170 256" fill="none" xmlns="http://www.w3.org/2000/svg">
<g clip-path="url(#clip0_77_546)">
<path d="M48.0446 249.899L13.0857 233.899C7.13944 231.178 3.1494 220.383 7.17766 212.24L56.2758 107.609C58.9972 101.663 61.949 95.9434 71.934 91.8369L114.563 112.497C119.174 117.632 117.956 127.549 115.235 133.495L66.3134 241.726C63.592 247.672 53.9909 252.62 48.0446 249.899Z" fill="#252525"/>
<path d="M141.905 29.06L117.819 18.0367C116.57 17.4649 116.148 15.8996 116.939 14.7774L118.521 12.5354C120.172 10.1948 123.251 9.35353 125.864 10.5257L137.118 15.5345L142.116 17.8217C145.45 19.318 146.924 23.2427 145.404 26.5655L144.744 28.0056C144.252 29.0814 142.981 29.5523 141.908 29.0611L141.905 29.06Z" fill="#252525"/>
<path d="M136.394 40.6553L112.869 29.9568C111.62 29.385 111.014 26.7359 111.806 25.6112L113.483 22.7355C115.134 20.3949 118.338 17.0382 120.953 18.2139L131.996 22.6765L139.332 25.3452C142.666 26.8414 141.854 34.321 140.333 37.6438L139.674 39.0839C139.182 40.1598 137.474 41.1463 136.398 40.6539L136.394 40.6553Z" fill="#252525"/>
<path d="M116.84 97.1061L84.1397 79.5825C90.0351 70.662 104.518 43.4692 105.312 42.3481L108.594 37.1526C110.245 34.812 112.488 30.4801 113.173 28.8092L125.987 34.029L137.957 36.5236C135.58 44.2834 133.885 47.9851 132.518 52.3687L126.8 67.6603C126.308 68.7361 120.143 85.9345 116.842 97.1072L116.84 97.1061Z" fill="#252525"/>
<path d="M86.1836 76.4282C86.1836 76.4282 81.2539 85.2613 71.934 91.8368C62.7008 97.5767 119.557 130.816 117.264 117.941C116.027 110.991 115.574 104.769 117.919 93.0224C120.264 81.2763 86.1836 76.4282 86.1836 76.4282Z" fill="#252525"/>
<path d="M55.6485 115.073C55.6485 115.073 82.7821 122.319 86.212 137.323C87.2262 141.755 85.4946 145.242 84.7414 147.094C83.7331 149.575 81.7425 153.647 77.6581 162.571C77.6581 162.571 69.5841 181.073 62.4296 194.935C55.2715 208.798 49.4719 215.468 20.301 192.986" fill="#FE7B39"/>
<path d="M109.954 124.035C110.192 123.515 109.964 122.901 109.444 122.663C108.925 122.425 108.311 122.654 108.073 123.174L107.3 124.864C107.062 125.383 107.29 125.997 107.81 126.235C108.329 126.473 108.943 126.244 109.18 125.724L109.954 124.035Z" fill="#FE7B39"/>
<path d="M61.8518 182.215C62.0897 181.695 61.8617 181.081 61.3425 180.843C60.8233 180.606 60.2095 180.835 59.9716 181.354L59.1984 183.044C58.9604 183.564 59.1884 184.178 59.7077 184.416C60.2269 184.653 60.8407 184.424 61.0786 183.904L61.8518 182.215Z" fill="#252525"/>
<path d="M106.467 132.053C106.705 131.533 106.477 130.919 105.958 130.681C105.439 130.444 104.825 130.672 104.587 131.192L101.875 137.119C101.637 137.639 101.865 138.253 102.384 138.491C102.903 138.728 103.517 138.499 103.755 137.98L106.467 132.053Z" fill="#FE7B39"/>
<path d="M132.29 43.6623C132.483 43.1241 132.203 42.5316 131.666 42.3388C131.128 42.146 130.536 42.426 130.343 42.9642L121.527 67.5431C121.334 68.0812 121.613 68.6738 122.151 68.8666C122.688 69.0594 123.281 68.7794 123.474 68.2412L132.29 43.6623Z" fill="#FE7B39"/>
<path d="M140.495 28.6898L140.46 29.4009C140.016 30.5966 137.375 29.1306 136.857 28.8934L119.014 20.8869C118.495 20.6497 117.695 20.4787 117.883 19.642L118.437 18.5352C118.674 18.0169 119.353 18.7683 119.874 19.0067L139.516 27.8897C140.034 28.1269 140.733 28.1714 140.494 28.6922L140.495 28.6898Z" fill="#FE7B39"/>
<path d="M122.36 72.886C122.553 72.3478 122.274 71.7552 121.736 71.5624C121.199 71.3697 120.607 71.6497 120.414 72.1878L113.621 91.125C113.428 91.6632 113.707 92.2557 114.245 92.4485C114.782 92.6413 115.374 92.3613 115.568 91.8231L122.36 72.886Z" fill="#FE7B39"/>
<path d="M66.3845 172.44C66.6225 171.92 66.3944 171.306 65.8752 171.068C65.356 170.831 64.7422 171.06 64.5043 171.58L61.7918 177.506C61.5539 178.026 61.7819 178.64 62.3011 178.878C62.8204 179.115 63.4341 178.887 63.6721 178.367L66.3845 172.44Z" fill="#252525"/>
<path d="M100.676 144.972C100.914 144.452 100.686 143.838 100.167 143.6C99.6476 143.363 99.0338 143.591 98.7959 144.111L88.2225 167.214C87.9845 167.734 88.2125 168.348 88.7317 168.586C89.251 168.823 89.8647 168.595 90.1027 168.075L100.676 144.972Z" fill="#FE7B39"/>
<path d="M78.9553 144.902C79.1933 144.382 78.9652 143.768 78.446 143.53C77.9268 143.292 77.313 143.521 77.0751 144.041L66.5017 167.144C66.2638 167.664 66.4918 168.278 67.011 168.516C67.5302 168.753 68.144 168.525 68.3819 168.005L78.9553 144.902Z" fill="#252525"/>
<path d="M60.9224 116.821C61.1604 116.301 60.9323 115.687 60.4131 115.45C59.8939 115.212 59.2801 115.441 59.0422 115.961L44.3442 148.076C44.1062 148.596 44.3342 149.21 44.8535 149.448C45.3727 149.685 45.9864 149.456 46.2244 148.936L60.9224 116.821Z" fill="#252525"/>
<path d="M82.3343 184.235C82.5722 183.715 82.3442 183.101 81.825 182.863C81.3058 182.625 80.692 182.854 80.4541 183.374L62.1338 223.404C61.8959 223.924 62.1239 224.538 62.6431 224.776C63.1623 225.013 63.7761 224.784 64.014 224.265L82.3343 184.235Z" fill="#FE7B39"/>
<path d="M57.684 236.144L56.1852 235.458C55.7769 235.271 56.0537 234.68 56.5088 234.48C56.8051 234.349 57.0348 234.1 57.1677 233.803L59.0091 229.728C59.2206 229.265 60.0223 228.961 60.5406 229.198C61.059 229.436 61.3096 230.006 61.0981 230.468L58.8959 235.28C58.6844 235.742 58.2048 236.383 57.6864 236.145L57.684 236.144Z" fill="#FE7B39"/>
<path d="M53.7622 241.302L52.3108 240.525C51.8597 240.283 51.6289 239.767 51.7526 239.27C51.7652 239.217 51.7887 239.166 51.8209 239.121C52.0739 238.781 52.4736 238.58 52.8984 238.582L54.2548 238.591C54.2897 238.592 54.3211 238.595 54.3562 238.602C54.8731 238.726 55.6433 239.253 55.7597 239.767C55.7808 239.857 55.7659 239.948 55.7278 240.031L55.438 240.664C55.1471 241.3 54.4013 241.585 53.7611 241.304L53.7622 241.302Z" fill="#FE7B39"/>
<path d="M59.8196 116.627C59.3012 116.39 59.0707 115.775 59.309 115.255L65.9685 101.272L66.5721 100.315C66.8555 99.9867 67.0292 99.6847 67.3354 99.5262C67.5707 99.4062 68.265 98.9876 68.5746 98.7892L73.4017 96.0925C73.8559 95.8627 74.2916 95.589 74.6961 95.2803L81.3304 90.2051C81.6129 89.9884 82.0116 90.0023 82.2796 90.2373C82.4235 90.3623 82.5584 90.5069 82.6611 90.6574C82.8739 90.9677 82.8043 91.3912 82.5128 91.6275L77.6003 95.5833C77.1299 95.9328 74.9839 97.3134 74.4791 97.6088L68.941 100.903C68.5389 101.174 68.1224 101.658 67.9185 102.097L61.1906 116.119C60.9534 116.637 60.3392 116.868 59.8184 116.629L59.8196 116.627Z" fill="#FE7B39"/>
</g>
<path d="M161.728 17.4385C161.956 14.2427 165.242 14.46 166.226 9.91159C168.31 10.0603 169.815 12.7716 169.587 15.9675C169.359 19.1634 167.485 21.6336 165.4 21.4849C163.316 21.3361 161.5 20.6344 161.728 17.4385Z" fill="#252525"/>
<path d="M85.8286 37.644C85.2735 43.1804 80.3573 42.2617 78.4235 50.1085C74.8175 49.7469 72.3442 44.9657 72.8993 39.4293C73.4544 33.8929 76.8277 29.6979 80.4337 30.0594C84.0398 30.421 86.3837 32.1076 85.8286 37.644Z" fill="#252525"/>
<defs>
<clipPath id="clip0_77_546">
<rect width="66.0479" height="250.645" fill="white" transform="translate(104.306) rotate(24.5919)"/>
</clipPath>
</defs>
</svg>
